<?xml version="1.0" encoding="UTF-8"?>
<!-- SPDX-FileCopyrightText: © 2024 University of Bristol -->
<!-- SPDX-License-Identifier: LicenseRef-ARR -->
<svg xmlns="http://www.w3.org/2000/svg" viewBox="0 0 232.6 232.6" width="232.6" height="232.6">
  <defs>
    <style>
      .l {
        fill: #002f5f;
      }
      .r {
        fill: #009cde;
      }
      @media (prefers-color-scheme: dark) {
        .l {
          fill: #FFFFFF;
        }
      }
    </style>
  </defs>
  <g transform="translate(10,31.26)">
    <polygon class="r" points="156.15,83.35 182.67,83.67 182.67,41.73 156.15,28.47"/>
    <polygon class="r" points="103.28,82.7 153.85,83.32 153.85,27.32 103.28,2.04"/>
    <polygon class="r" points="184.32,83.69 200.71,83.9 200.71,50.75 184.32,42.55"/>
    <polygon class="r" points="201.54,83.91 212.6,84.04 212.6,56.69 201.54,51.16"/>
    <polygon class="r" points="153.85,86.76 103.28,87.38 103.28,168.04 153.85,142.76"/>
    <polygon class="r" points="200.71,86.18 184.32,86.38 184.32,127.52 200.71,119.33"/>
    <polygon class="r" points="182.67,86.41 156.15,86.73 156.15,141.61 182.67,128.35"/>
    <polygon class="r" points="201.54,86.17 201.54,118.92 212.6,113.39 212.6,86.04"/>
    <polygon class="r" points="42.52,83.08 42.52,39.8 25.68,36.77 25.68,83.52"/>
    <polygon class="r" points="25.68,86.48 25.68,133.31 42.52,130.21 42.52,87"/>
    <polygon class="l" points="0,85.04 23.97,83.52 23.97,37.62 0,49.61"/>
    <polygon class="l" points="99.21,82.69 99.21,0 42.52,28.35 42.52,83.08"/>
    <polygon class="l" points="99.21,87.39 42.52,87 42.52,141.73 99.21,170.08"/>
    <polygon class="l" points="0,85.04 0,120.47 23.97,132.46 23.97,86.48"/>
  </g>
</svg>
